<?xml version="1.0" encoding="UTF-8"?>
<svg xmlns="http://www.w3.org/2000/svg" viewBox="0 0 1254 1254">
<g transform="translate(0.000000,1254.000000) scale(0.100000,-0.100000)" stroke="none">
<g fill="#fdedc9">
<path d="M6144 10507 c-3 -9 83 -278 191 -599 300 -887 888 -2643 1005 -3000
103 -317 103 -317 300 -480 108 -90 450 -377 760 -638 309 -261 566 -477 571
-478 6 -2 25 8 43 22 32 24 33 28 25 63 -14 62 -10 220 7 286 44 169 161 314
318 394 47 24 51 38 11 45 -43 7 -28 116 26 195 21 30 46 50 94 72 70 33 85
36 113 22 9 -5 32 -15 51 -22 75 -28 131 -104 134 -182 2 -36 -1 -43 -26 -55
-35 -17 -28 -25 43 -46 104 -30 220 -114 281 -202 33 -49 52 -50 42 -4 -5 27
-2 31 30 45 84 35 202 1 242 -68 10 -18 26 -41 37 -53 17 -19 18 -28 8 -89
-17 -106 -59 -169 -137 -209 -44 -22 -58 -20 -71 10 -18 38 -28 22 -35 -55
-21 -247 -201 -457 -443 -517 -38 -9 -75 -18 -82 -20 -10 -3 -13 -23 -11 -81
3 -62 1 -78 -13 -86 -26 -17 -48 9 -49 57 -3 95 -6 99 -89 117 -93 20 -148 37
-179 56 -13 8 -27 11 -32 6 -9 -9 25 -39 381 -336 244 -204 262 -226 227 -280
-32 -48 -44 -46 -444 104 -208 78 -418 156 -468 174 -49 18 -214 79 -365 135
-151 56 -441 162 -645 237 -203 74 -383 141 -400 148 -16 7 -58 15 -92 18 -59
5 -86 18 -425 203 -1019 556 -1591 874 -1621 902 -16 15 -41 50 -55 77 -27 50
-27 50 -32 2055 -5 1893 -6 2005 -22 2008 -10 2 -80 -9 -155 -24 -954 -186
-1874 -753 -2503 -1540 -873 -1092 -1191 -2538 -855 -3884 252 -1009 846
-1879 1735 -2546 700 -525 1500 -835 2335 -905 177 -15 644 -6 815 16 1730
216 3255 1478 3789 3136 225 699 271 1443 135 2169 -174 933 -592 1731 -1248
2385 -748 745 -1655 1148 -2781 1234 -288 22 -464 25 -471 8z m-2257 -1306 c6
-3 125 -138 262 -300 241 -283 251 -296 251 -336 0 -60 -48 -97 -102 -76 -23
9 -514 572 -532 611 -5 10 -5 35 -2 55 10 54 68 75 123 46z m4719 1 c21 -14
36 -55 30 -84 -5 -27 -430 -557 -493 -615 -54 -51 -133 -18 -133 55 0 35 20
63 241 333 132 161 248 300 257 307 17 13 80 16 98 4z m-5526 -1533 c206 -99
384 -189 395 -199 24 -25 25 -82 1 -109 -39 -43 -62 -38 -262 57 -460 219
-603 291 -613 310 -17 31 -13 67 10 96 39 49 62 41 469 -155z m6710 161 c20
-20 28 -83 12 -106 -4 -7 -180 -98 -391 -204 -407 -202 -411 -204 -455 -160
-24 23 -27 80 -6 105 8 9 179 100 380 200 388 195 419 206 460 165z m-700
-1610 c0 -13 -14 -27 -41 -41 -94 -47 -182 -170 -195 -271 -6 -43 -9 -48 -32
-48 -24 0 -25 1 -18 57 10 83 65 192 123 243 84 74 163 103 163 60z m50 -143
c0 -17 -10 -28 -35 -40 -44 -21 -93 -89 -101 -139 -6 -32 -11 -38 -30 -38 -55
0 -9 138 66 203 52 45 100 51 100 14z m-5946 -8 c46 -22 54 -99 14 -136 -19
-17 -52 -18 -519 -18 -498 0 -498 0 -521 22 -33 33 -30 89 6 119 27 24 27 24
511 24 341 0 491 -3 509 -11z m7284 -800 c10 -117 -112 -369 -179 -369 -26 0
-26 51 1 75 59 53 120 195 120 279 0 49 6 58 35 54 15 -2 21 -12 23 -39z
m-154 -24 c-2 -58 -31 -124 -77 -172 -62 -65 -102 -28 -42 38 41 45 65 95 65
133 0 40 11 57 34 54 18 -3 21 -9 20 -53z m-6839 -620 c30 -29 33 -74 8 -103
-10 -12 -172 -120 -361 -241 -293 -189 -349 -221 -381 -221 -58 0 -90 47 -71
104 8 26 62 65 362 259 382 246 394 252 443 202z m5531 -268 c356 -232 521
-345 528 -362 28 -73 -30 -141 -98 -116 -33 13 -698 449 -713 469 -22 27 -16
80 12 107 43 44 67 35 271 -98z m-1133 -899 c26 -35 125 -194 330 -530 100
-162 127 -215 127 -243 0 -51 -30 -77 -83 -73 -53 4 -7 -65 -469 692 -55 90
-60 125 -23 161 37 38 87 34 118 -7z m-3269 1 c32 -25 34 -64 6 -119 -47 -92
-413 -697 -432 -712 -28 -24 -83 -23 -108 2 -44 44 -34 66 196 452 119 200
225 371 236 381 27 23 69 22 102 -4z m1631 -341 c44 -20 46 -49 43 -586 -3
-504 -3 -504 -31 -528 -43 -37 -104 -26 -126 23 -17 36 -15 1019 2 1053 22 43
67 59 112 38z"/>
<path d="M9585 5939 c-8 -11 6 -16 42 -15 18 1 34 6 35 11 3 12 -70 16 -77 4z"/>
<path d="M9706 5931 c-4 -5 -2 -12 3 -15 5 -4 12 -2 15 3 4 5 2 12 -3 15 -5 4
-12 2 -15 -3z"/>
<path d="M9836 5871 c-4 -5 -2 -12 3 -15 5 -4 12 -2 15 3 4 5 2 12 -3 15 -5 4
-12 2 -15 -3z"/>
<path d="M9776 5801 c-4 -5 -2 -12 3 -15 5 -4 12 -2 15 3 4 5 2 12 -3 15 -5 4
-12 2 -15 -3z"/>
<path d="M9306 5791 c-4 -5 -2 -12 3 -15 5 -4 12 -2 15 3 4 5 2 12 -3 15 -5 4
-12 2 -15 -3z"/>
<path d="M9926 5781 c-4 -5 -2 -12 3 -15 5 -4 12 -2 15 3 4 5 2 12 -3 15 -5 4
-12 2 -15 -3z"/>
<path d="M9796 5771 c-4 -5 -2 -12 3 -15 5 -4 12 -2 15 3 4 5 2 12 -3 15 -5 4
-12 2 -15 -3z"/>
<path d="M9946 5751 c-4 -5 -2 -12 3 -15 5 -4 12 -2 15 3 4 5 2 12 -3 15 -5 4
-12 2 -15 -3z"/>
<path d="M9256 5711 c-4 -5 -2 -12 3 -15 5 -4 12 -2 15 3 4 5 2 12 -3 15 -5 4
-12 2 -15 -3z"/>
<path d="M9966 5711 c-4 -5 -2 -12 3 -15 5 -4 12 -2 15 3 4 5 2 12 -3 15 -5 4
-12 2 -15 -3z"/>
<path d="M9236 5661 c-4 -5 -2 -12 3 -15 5 -4 12 -2 15 3 4 5 2 12 -3 15 -5 4
-12 2 -15 -3z"/>
<path d="M9226 5621 c-4 -5 -2 -12 3 -15 5 -4 12 -2 15 3 4 5 2 12 -3 15 -5 4
-12 2 -15 -3z"/>
<path d="M9996 5621 c-4 -5 -2 -12 3 -15 5 -4 12 -2 15 3 4 5 2 12 -3 15 -5 4
-12 2 -15 -3z"/>
<path d="M9666 5551 c-4 -5 -2 -12 3 -15 5 -4 12 -2 15 3 4 5 2 12 -3 15 -5 4
-12 2 -15 -3z"/>
<path d="M9576 5511 c-4 -5 -2 -12 3 -15 5 -4 12 -2 15 3 4 5 2 12 -3 15 -5 4
-12 2 -15 -3z"/>
<path d="M9716 5511 c-4 -5 -2 -12 3 -15 5 -4 12 -2 15 3 4 5 2 12 -3 15 -5 4
-12 2 -15 -3z"/>
<path d="M9606 5491 c-4 -5 -2 -12 3 -15 5 -4 12 -2 15 3 4 5 2 12 -3 15 -5 4
-12 2 -15 -3z"/>
<path d="M9756 5481 c-4 -5 -2 -12 3 -15 5 -4 12 -2 15 3 4 5 2 12 -3 15 -5 4
-12 2 -15 -3z"/>
<path d="M9996 5471 c-4 -5 -2 -12 3 -15 5 -4 12 -2 15 3 4 5 2 12 -3 15 -5 4
-12 2 -15 -3z"/>
<path d="M9666 5451 c-4 -5 -2 -12 3 -15 5 -4 12 -2 15 3 4 5 2 12 -3 15 -5 4
-12 2 -15 -3z"/>
<path d="M9805 5430 c-4 -6 -3 -16 3 -22 6 -6 12 -6 17 2 4 6 3 16 -3 22 -6 6
-12 6 -17 -2z"/>
<path d="M9706 5421 c-4 -5 -2 -12 3 -15 5 -4 12 -2 15 3 4 5 2 12 -3 15 -5 4
-12 2 -15 -3z"/>
<path d="M9236 5411 c-4 -5 -2 -12 3 -15 5 -4 12 -2 15 3 4 5 2 12 -3 15 -5 4
-12 2 -15 -3z"/>
<path d="M9960 5371 c-6 -12 -6 -22 -1 -26 6 -3 15 3 21 14 6 12 6 22 1 26 -6
3 -15 -3 -21 -14z"/>
<path d="M9276 5331 c-4 -5 -2 -12 3 -15 5 -4 12 -2 15 3 4 5 2 12 -3 15 -5 4
-12 2 -15 -3z"/>
<path d="M9916 5301 c-4 -5 -2 -12 3 -15 5 -4 12 -2 15 3 4 5 2 12 -3 15 -5 4
-12 2 -15 -3z"/>
<path d="M9039 5272 c-22 -19 -22 -19 30 -60 66 -53 79 -46 39 19 -39 62 -41
63 -69 41z"/>
<path d="M9376 5221 c-4 -5 -2 -12 3 -15 5 -4 12 -2 15 3 4 5 2 12 -3 15 -5 4
-12 2 -15 -3z"/>
<path d="M9816 5211 c-4 -5 -2 -12 3 -15 5 -4 12 -2 15 3 4 5 2 12 -3 15 -5 4
-12 2 -15 -3z"/>
<path d="M9405 5200 c-3 -5 8 -16 25 -25 16 -8 30 -13 30 -9 0 4 7 1 15 -6 8
-7 15 -9 15 -5 0 4 6 2 14 -4 10 -8 16 -9 21 -1 3 5 4 11 1 11 -16 4 -26 7
-31 9 -3 1 -8 3 -12 4 -5 1 -22 10 -40 19 -19 10 -34 13 -38 7z"/>
<path d="M9774 5186 c-10 -8 -22 -14 -26 -15 -5 0 -10 -2 -13 -2 -3 -1 -9 -2
-15 -3 -5 0 -10 -4 -10 -8 0 -5 0 -11 0 -14 0 -4 6 -2 13 4 6 6 15 11 20 11 4
1 8 1 10 2 1 0 10 2 21 4 24 5 41 21 29 28 -6 4 -18 0 -29 -7z"/>
<path d="M9555 5151 c-7 -12 12 -24 25 -16 11 7 4 25 -10 25 -5 0 -11 -4 -15
-9z"/>
<path d="M9656 5151 c-4 -5 -2 -12 3 -15 5 -4 12 -2 15 3 4 5 2 12 -3 15 -5 4
-12 2 -15 -3z"/>
</g>
<g fill="#fd7f3a">
<path d="M5609 11055 c-14 -8 -35 -27 -45 -42 -18 -27 -19 -89 -22 -2268 -3
-2174 -2 -2241 16 -2270 20 -32 33 -39 612 -355 184 -101 414 -227 510 -280
242 -134 647 -358 751 -414 47 -25 95 -46 107 -46 32 0 82 47 82 78 0 22 -318
1014 -423 1322 -14 41 -138 415 -276 830 -137 415 -365 1097 -506 1515 -141
418 -312 924 -379 1125 -264 782 -253 752 -291 788 -39 36 -89 42 -136 17z"/>
<path d="M9496 6065 c-243 -67 -416 -290 -416 -537 0 -246 167 -454 419 -519
358 -93 717 254 647 626 -59 308 -362 509 -650 430z m233 -76 c378 -87 473
-613 149 -829 -198 -132 -475 -96 -614 80 -240 303 -30 757 351 759 39 0 90
-4 114 -10z"/>
</g>
<g fill="#5d97e9">
<path d="M7447 6594 c-3 -3 -4 -11 -2 -17 11 -36 283 -869 313 -957 41 -125
42 -207 1 -281 -27 -49 -98 -107 -140 -116 -36 -7 -54 -27 -37 -41 7 -5 146
-58 308 -117 162 -59 459 -168 660 -242 201 -75 406 -150 455 -168 50 -18 260
-96 468 -174 271 -101 385 -139 402 -135 43 11 78 62 71 103 -6 42 17 20 -326
307 -146 122 -276 232 -290 246 -14 13 -49 41 -77 62 -29 21 -68 55 -86 76
-18 21 -57 58 -86 81 -51 41 -55 42 -85 30 -49 -20 -71 -19 -74 5 -2 14 6 27
22 38 15 9 26 21 26 26 0 11 -1459 1243 -1508 1274 -5 3 -12 3 -15 0z"/>
<path d="M9266 5731 c-4 -5 -2 -12 3 -15 5 -4 12 -2 15 3 4 5 2 12 -3 15 -5 4
-12 2 -15 -3z"/>
<path d="M9666 5701 c-4 -5 -2 -12 3 -15 5 -4 12 -2 15 3 4 5 2 12 -3 15 -5 4
-12 2 -15 -3z"/>
<path d="M9626 5641 c-4 -5 -2 -12 3 -15 5 -4 12 -2 15 3 4 5 2 12 -3 15 -5 4
-12 2 -15 -3z"/>
<path d="M9686 5591 c-4 -5 -2 -12 3 -15 5 -4 12 -2 15 3 4 5 2 12 -3 15 -5 4
-12 2 -15 -3z"/>
<path d="M9666 5561 c-4 -5 -2 -12 3 -15 5 -4 12 -2 15 3 4 5 2 12 -3 15 -5 4
-12 2 -15 -3z"/>
<path d="M9214 5536 c-4 -10 -2 -22 4 -28 8 -8 13 -7 18 6 4 10 2 22 -4 28 -8
8 -13 7 -18 -6z"/>
<path d="M9946 5341 c-4 -5 -2 -12 3 -15 5 -4 12 -2 15 3 4 5 2 12 -3 15 -5 4
-12 2 -15 -3z"/>
<path d="M9296 5301 c-4 -5 -2 -12 3 -15 5 -4 12 -2 15 3 4 5 2 12 -3 15 -5 4
-12 2 -15 -3z"/>
</g>
<g fill="#ffffff">
<path d="M2856 7801 c-4 -5 -2 -12 3 -15 5 -4 12 -2 15 3 4 5 2 12 -3 15 -5 4
-12 2 -15 -3z"/>
<path d="M9520 6339 c-60 -24 -128 -125 -102 -151 12 -12 302 9 316 22 5 5 -3
28 -18 53 -41 70 -126 103 -196 76z"/>
<path d="M9562 5939 c-122 -16 -246 -113 -305 -236 -30 -63 -32 -76 -32 -173
0 -95 3 -111 28 -162 84 -172 272 -267 444 -224 288 71 417 404 245 631 -98
129 -226 185 -380 164z m232 -166 c5 -11 -15 -50 -59 -115 -36 -54 -65 -102
-65 -107 0 -6 32 -35 71 -66 70 -57 77 -70 47 -89 -17 -10 -25 -6 -148 82 -35
25 -55 46 -54 58 0 10 38 72 83 137 81 116 110 139 125 100z"/>
<path d="M10202 5897 c-11 -13 66 -279 87 -300 14 -14 66 26 86 69 22 47 16
134 -11 172 -38 52 -138 88 -162 59z"/>
<path d="M9036 5761 c-4 -5 -2 -12 3 -15 5 -4 12 -2 15 3 4 5 2 12 -3 15 -5 4
-12 2 -15 -3z"/>
<path d="M9106 5191 c-4 -5 -2 -12 3 -15 5 -4 12 -2 15 3 4 5 2 12 -3 15 -5 4
-12 2 -15 -3z"/>
<path d="M3526 4581 c-4 -5 -2 -12 3 -15 5 -4 12 -2 15 3 4 5 2 12 -3 15 -5 4
-12 2 -15 -3z"/>
</g>
<g fill="#000000">
<path d="M5583 11221 c-99 -34 -171 -113 -192 -212 -6 -28 -11 -114 -11 -193
0 -103 -4 -146 -12 -153 -7 -5 -67 -20 -133 -33 -417 -79 -810 -211 -1175
-394 -1439 -723 -2390 -2157 -2521 -3799 -17 -223 -6 -729 20 -927 181 -1340
856 -2448 1977 -3250 1142 -817 2498 -1085 3791 -749 1149 298 2171 1037 2825
2044 381 586 612 1217 715 1955 26 185 26 948 0 1130 -123 867 -425 1619 -906
2260 -484 644 -1152 1169 -1836 1442 -555 222 -1112 329 -1810 346 -260 7
-260 7 -320 187 -68 204 -97 260 -157 304 -80 59 -166 73 -255 42z m157 -188
c33 -30 28 -18 286 -783 67 -201 238 -707 379 -1125 141 -418 369 -1100 506
-1515 138 -415 262 -789 276 -830 106 -309 423 -1300 423 -1322 0 -30 -41 -68
-73 -68 -11 0 -59 21 -106 46 -104 56 -509 280 -751 414 -96 53 -326 179 -510
280 -582 317 -590 322 -606 353 -13 25 -15 308 -12 2265 3 2107 4 2238 20
2262 41 57 119 67 168 23z m875 -544 c1123 -86 2033 -489 2776 -1229 705 -703
1141 -1593 1283 -2622 56 -401 44 -934 -30 -1348 -312 -1739 -1674 -3179
-3416 -3610 -333 -83 -540 -109 -908 -117 -435 -9 -712 22 -1130 127 -1068
268 -2104 1003 -2727 1935 -536 801 -786 1701 -743 2666 57 1251 636 2429
1580 3215 486 405 1011 681 1635 859 95 27 371 85 405 85 20 0 20 -16 22
-2002 3 -2003 3 -2003 30 -2053 14 -27 41 -64 60 -82 35 -33 512 -299 1628
-909 365 -199 365 -199 450 -199 93 0 121 10 185 67 90 78 106 187 53 348 -43
129 -251 767 -468 1435 -150 462 -471 1420 -954 2850 -108 319 -196 586 -196
594 0 15 195 11 465 -10z"/>
<path d="M3800 9212 c-40 -20 -59 -68 -44 -108 14 -38 513 -614 541 -625 56
-21 113 23 113 86 0 40 -11 54 -250 336 -297 349 -293 345 -360 311z"/>
<path d="M8502 9203 c-12 -10 -129 -151 -261 -312 -222 -271 -241 -298 -241
-333 0 -66 61 -106 124 -82 25 9 514 608 522 638 8 32 -12 83 -37 96 -28 16
-85 12 -107 -7z"/>
<path d="M2606 7829 c-30 -35 -33 -74 -9 -108 16 -23 155 -94 617 -313 198
-94 217 -98 260 -60 29 27 38 61 25 99 -10 32 -24 41 -218 135 -639 310 -626
306 -675 247z"/>
<path d="M9322 7672 c-331 -166 -374 -190 -387 -219 -18 -38 -12 -73 18 -101
49 -46 49 -46 464 162 218 109 393 202 397 211 14 37 6 86 -19 110 -46 47 -68
40 -473 -163z"/>
<path d="M9491 6398 c-91 -44 -148 -130 -150 -223 -1 -45 12 -65 44 -65 13 0
1 -11 -34 -30 -160 -88 -272 -229 -315 -397 -17 -66 -21 -224 -7 -286 10 -41
3 -49 -82 -92 -30 -16 -37 -25 -35 -44 5 -43 28 -46 95 -13 62 30 62 30 103
-38 87 -144 225 -235 412 -270 67 -12 67 -12 73 -69 9 -87 14 -99 36 -106 39
-13 54 16 50 100 -3 71 -2 75 19 75 35 0 130 30 192 61 177 89 309 284 325
481 6 67 7 69 20 44 16 -30 32 -32 76 -10 82 41 130 113 147 219 10 61 9 70
-8 89 -10 12 -28 37 -40 57 -46 76 -171 112 -252 71 -31 -15 -35 -21 -33 -52
1 -35 1 -35 -15 -10 -28 44 -136 146 -187 176 -28 16 -79 39 -115 51 -36 12
-57 22 -48 22 103 4 21 214 -103 260 -18 7 -42 17 -51 22 -28 14 -48 10 -117
-23z m154 -78 c36 -17 96 -93 84 -105 -7 -6 -300 -27 -306 -22 -10 11 18 74
45 100 52 50 111 59 177 27z m116 -266 c339 -100 492 -506 301 -799 -213 -328
-670 -334 -888 -11 -198 293 -31 714 322 811 69 19 199 18 265 -1z m539 -176
c74 -38 102 -133 64 -213 -15 -32 -60 -72 -71 -62 -10 10 -92 281 -87 289 9
14 49 8 94 -14z"/>
<path d="M9505 5996 c-338 -106 -464 -494 -247 -761 48 -59 144 -125 211 -146
76 -24 214 -23 285 1 189 62 315 222 332 418 18 218 -144 442 -357 491 -60 14
-175 12 -224 -3z m264 -88 c79 -30 179 -131 211 -213 128 -330 -183 -648 -513
-525 -254 95 -321 448 -123 646 116 115 272 149 425 92z"/>
<path d="M9738 5783 c-8 -10 -41 -56 -73 -103 -32 -47 -67 -97 -78 -112 -11
-15 -17 -33 -14 -40 5 -14 168 -135 195 -145 17 -7 42 15 42 38 0 14 -69 77
-133 120 -5 3 23 52 62 108 68 100 76 124 47 143 -18 12 -32 9 -48 -9z"/>
<path d="M9009 6231 c-114 -62 -208 -202 -212 -318 -2 -58 -2 -58 27 -58 28 0
30 3 42 64 23 111 95 204 203 263 24 13 32 24 29 40 -4 30 -42 34 -89 9z"/>
<path d="M9033 6066 c-56 -51 -96 -129 -91 -179 3 -28 7 -32 32 -32 26 0 30 5
40 46 16 60 49 105 97 130 34 17 40 24 37 47 -5 48 -54 42 -115 -12z"/>
<path d="M2183 6078 c-35 -17 -57 -72 -43 -112 22 -67 21 -67 564 -64 484 3
484 3 509 26 47 44 39 120 -14 147 -35 19 -978 21 -1016 3z"/>
<path d="M10422 5308 c-7 -7 -12 -31 -12 -53 0 -84 -46 -196 -111 -270 -22
-24 -29 -42 -27 -62 12 -105 164 73 203 238 25 109 17 159 -25 159 -9 0 -21
-5 -28 -12z"/>
<path d="M10270 5291 c-5 -11 -10 -31 -10 -46 0 -39 -24 -88 -65 -133 -67 -75
-13 -117 57 -44 89 92 118 242 47 242 -10 0 -23 -9 -29 -19z"/>
<path d="M3038 4430 c-314 -203 -358 -235 -368 -264 -19 -60 20 -116 81 -116
32 0 89 33 381 220 189 122 353 232 366 246 31 36 29 79 -7 115 -55 55 -60 53
-453 -201z"/>
<path d="M8739 4461 c-34 -34 -39 -87 -11 -119 20 -23 682 -459 718 -473 73
-27 142 60 104 132 -11 19 -176 133 -534 366 -209 136 -228 143 -277 94z"/>
<path d="M7774 3488 c-25 -11 -44 -48 -44 -82 0 -12 22 -58 48 -102 27 -43 99
-162 161 -264 203 -332 255 -415 271 -427 27 -22 88 -16 115 12 49 48 41 70
-139 363 -238 389 -285 464 -309 490 -22 24 -66 28 -103 10z"/>
<path d="M4507 3468 c-14 -13 -122 -186 -241 -386 -235 -394 -241 -408 -191
-457 32 -33 85 -33 119 -2 22 19 385 616 436 717 33 65 24 111 -27 138 -33 18
-69 14 -96 -10z"/>
<path d="M6163 3124 c-19 -10 -36 -28 -42 -46 -16 -46 -15 -1018 1 -1053 21
-46 75 -65 122 -44 55 26 56 33 56 572 0 531 -1 547 -51 572 -35 19 -46 18
-86 -1z"/>
</g>
</g>
</svg>
